<mxfile host="6d5e7cd4-c28c-421f-b218-4d2954e9af88" modified="2020-09-24T07:40:15.151Z" agent="5.0 (Macintosh; Intel Mac OS X 10_15_6) AppleWebKit/537.36 (KHTML, like Gecko) Code/1.49.1 Chrome/83.0.4103.122 Electron/9.2.1 Safari/537.36" etag="z0o2WapjtcxEnRWp8nYC" version="13.1.3">
    <diagram id="6hGFLwfOUW9BJ-s0fimq" name="Page-1">
        <mxGraphModel dx="1381" dy="800" grid="1" gridSize="10" guides="1" tooltips="1" connect="1" arrows="1" fold="1" page="1" pageScale="1" pageWidth="827" pageHeight="1169" math="0" shadow="0">
            <root>
                <mxCell id="0"/>
                <mxCell id="1" parent="0"/>
                <mxCell id="2" value="" style="rounded=0;whiteSpace=wrap;html=1;" parent="1" vertex="1">
                    <mxGeometry x="100" y="130" width="620" height="320" as="geometry"/>
                </mxCell>
                <mxCell id="3" value="" style="rounded=0;whiteSpace=wrap;html=1;" parent="1" vertex="1">
                    <mxGeometry x="440" y="180" width="260" height="205" as="geometry"/>
                </mxCell>
                <mxCell id="4" value="&lt;b&gt;aws_internet_gateway.public_a&lt;/b&gt;" style="outlineConnect=0;dashed=0;verticalLabelPosition=bottom;verticalAlign=top;align=center;html=1;shape=mxgraph.aws3.internet_gateway;fillColor=#F58534;gradientColor=none;" parent="1" vertex="1">
                    <mxGeometry x="165.5" y="234" width="69" height="72" as="geometry"/>
                </mxCell>
                <mxCell id="16" style="rounded=0;orthogonalLoop=1;jettySize=auto;html=1;entryX=1;entryY=0.5;entryDx=0;entryDy=0;entryPerimeter=0;endArrow=none;endFill=0;dashed=1;" parent="1" source="6" target="14" edge="1">
                    <mxGeometry relative="1" as="geometry"/>
                </mxCell>
                <mxCell id="6" value="&lt;font color=&quot;#ffffff&quot;&gt;&lt;b&gt;aws_nat_gateway.public_a&lt;/b&gt;&lt;/font&gt;" style="outlineConnect=0;fontColor=#232F3E;gradientColor=none;fillColor=#5A30B5;strokeColor=none;dashed=0;verticalLabelPosition=bottom;verticalAlign=top;align=center;html=1;fontSize=12;fontStyle=0;aspect=fixed;pointerEvents=1;shape=mxgraph.aws4.nat_gateway;" parent="1" vertex="1">
                    <mxGeometry x="490" y="270" width="78" height="78" as="geometry"/>
                </mxCell>
                <mxCell id="7" value="aws_vpc.main - 10.1.0.0/16" style="text;html=1;align=center;verticalAlign=middle;resizable=0;points=[];autosize=1;fontStyle=1" parent="1" vertex="1">
                    <mxGeometry x="100" y="130" width="170" height="20" as="geometry"/>
                </mxCell>
                <mxCell id="11" style="rounded=0;orthogonalLoop=1;jettySize=auto;html=1;startArrow=none;startFill=0;dashed=1;endArrow=none;endFill=0;" parent="1" source="9" target="4" edge="1">
                    <mxGeometry relative="1" as="geometry"/>
                </mxCell>
                <mxCell id="12" style="rounded=0;orthogonalLoop=1;jettySize=auto;html=1;endArrow=none;endFill=0;dashed=1;" parent="1" source="9" target="3" edge="1">
                    <mxGeometry relative="1" as="geometry"/>
                </mxCell>
                <mxCell id="9" value="&lt;font color=&quot;#ffffff&quot;&gt;&lt;b&gt;aws_route_table.public_a&lt;/b&gt;&lt;/font&gt;" style="outlineConnect=0;fontColor=#232F3E;gradientColor=none;strokeColor=#232F3E;fillColor=#ffffff;dashed=0;verticalLabelPosition=bottom;verticalAlign=top;align=center;html=1;fontSize=12;fontStyle=0;aspect=fixed;shape=mxgraph.aws4.resourceIcon;resIcon=mxgraph.aws4.route_table;" parent="1" vertex="1">
                    <mxGeometry x="320" y="180" width="60" height="60" as="geometry"/>
                </mxCell>
                <mxCell id="13" value="aws_subnet.public_a - 10.1.1.0/24" style="text;html=1;align=center;verticalAlign=middle;resizable=0;points=[];autosize=1;fontStyle=1" parent="1" vertex="1">
                    <mxGeometry x="440" y="180" width="210" height="20" as="geometry"/>
                </mxCell>
                <mxCell id="14" value="&lt;b&gt;aws_eip.public_a&lt;/b&gt;" style="outlineConnect=0;dashed=0;verticalLabelPosition=bottom;verticalAlign=top;align=center;html=1;shape=mxgraph.aws3.elastic_ip;fillColor=#F58534;gradientColor=none;" parent="1" vertex="1">
                    <mxGeometry x="165.5" y="370" width="76.5" height="21" as="geometry"/>
                </mxCell>
                <mxCell id="17" value="" style="rounded=0;whiteSpace=wrap;html=1;" vertex="1" parent="1">
                    <mxGeometry x="100" y="585" width="620" height="320" as="geometry"/>
                </mxCell>
                <mxCell id="18" value="" style="rounded=0;whiteSpace=wrap;html=1;" vertex="1" parent="1">
                    <mxGeometry x="440" y="635" width="260" height="205" as="geometry"/>
                </mxCell>
                <mxCell id="19" value="&lt;b&gt;aws_internet_gateway.public_b&lt;/b&gt;" style="outlineConnect=0;dashed=0;verticalLabelPosition=bottom;verticalAlign=top;align=center;html=1;shape=mxgraph.aws3.internet_gateway;fillColor=#F58534;gradientColor=none;" vertex="1" parent="1">
                    <mxGeometry x="165.5" y="689" width="69" height="72" as="geometry"/>
                </mxCell>
                <mxCell id="20" style="rounded=0;orthogonalLoop=1;jettySize=auto;html=1;entryX=1;entryY=0.5;entryDx=0;entryDy=0;entryPerimeter=0;endArrow=none;endFill=0;dashed=1;" edge="1" parent="1" source="21" target="27">
                    <mxGeometry relative="1" as="geometry"/>
                </mxCell>
                <mxCell id="21" value="&lt;font color=&quot;#ffffff&quot;&gt;&lt;b&gt;aws_nat_gateway.public_b&lt;/b&gt;&lt;/font&gt;" style="outlineConnect=0;fontColor=#232F3E;gradientColor=none;fillColor=#5A30B5;strokeColor=none;dashed=0;verticalLabelPosition=bottom;verticalAlign=top;align=center;html=1;fontSize=12;fontStyle=0;aspect=fixed;pointerEvents=1;shape=mxgraph.aws4.nat_gateway;" vertex="1" parent="1">
                    <mxGeometry x="490" y="725" width="78" height="78" as="geometry"/>
                </mxCell>
                <mxCell id="22" value="aws_vpc.main - 10.1.0.0/16" style="text;html=1;align=center;verticalAlign=middle;resizable=0;points=[];autosize=1;fontStyle=1" vertex="1" parent="1">
                    <mxGeometry x="100" y="585" width="170" height="20" as="geometry"/>
                </mxCell>
                <mxCell id="23" style="rounded=0;orthogonalLoop=1;jettySize=auto;html=1;startArrow=none;startFill=0;dashed=1;endArrow=none;endFill=0;" edge="1" parent="1" source="25" target="19">
                    <mxGeometry relative="1" as="geometry"/>
                </mxCell>
                <mxCell id="24" style="rounded=0;orthogonalLoop=1;jettySize=auto;html=1;endArrow=none;endFill=0;dashed=1;" edge="1" parent="1" source="25" target="18">
                    <mxGeometry relative="1" as="geometry"/>
                </mxCell>
                <mxCell id="25" value="&lt;font color=&quot;#ffffff&quot;&gt;&lt;b&gt;aws_route_table.public_b&lt;/b&gt;&lt;/font&gt;" style="outlineConnect=0;fontColor=#232F3E;gradientColor=none;strokeColor=#232F3E;fillColor=#ffffff;dashed=0;verticalLabelPosition=bottom;verticalAlign=top;align=center;html=1;fontSize=12;fontStyle=0;aspect=fixed;shape=mxgraph.aws4.resourceIcon;resIcon=mxgraph.aws4.route_table;" vertex="1" parent="1">
                    <mxGeometry x="320" y="635" width="60" height="60" as="geometry"/>
                </mxCell>
                <mxCell id="26" value="aws_subnet.public_b - 10.1.2.0/24" style="text;html=1;align=center;verticalAlign=middle;resizable=0;points=[];autosize=1;fontStyle=1" vertex="1" parent="1">
                    <mxGeometry x="440" y="635" width="210" height="20" as="geometry"/>
                </mxCell>
                <mxCell id="27" value="&lt;b&gt;aws_eip.public_b&lt;/b&gt;" style="outlineConnect=0;dashed=0;verticalLabelPosition=bottom;verticalAlign=top;align=center;html=1;shape=mxgraph.aws3.elastic_ip;fillColor=#F58534;gradientColor=none;" vertex="1" parent="1">
                    <mxGeometry x="165.5" y="825" width="76.5" height="21" as="geometry"/>
                </mxCell>
                <mxCell id="39" value="" style="rounded=0;whiteSpace=wrap;html=1;" vertex="1" parent="1">
                    <mxGeometry x="931" y="130" width="620" height="320" as="geometry"/>
                </mxCell>
                <mxCell id="40" value="" style="rounded=0;whiteSpace=wrap;html=1;" vertex="1" parent="1">
                    <mxGeometry x="1271" y="180" width="260" height="205" as="geometry"/>
                </mxCell>
                <mxCell id="44" value="aws_vpc.main - 10.1.0.0/16" style="text;html=1;align=center;verticalAlign=middle;resizable=0;points=[];autosize=1;fontStyle=1" vertex="1" parent="1">
                    <mxGeometry x="931" y="130" width="170" height="20" as="geometry"/>
                </mxCell>
                <mxCell id="45" style="rounded=0;orthogonalLoop=1;jettySize=auto;html=1;startArrow=none;startFill=0;dashed=1;endArrow=none;endFill=0;" edge="1" parent="1" source="47" target="6">
                    <mxGeometry relative="1" as="geometry">
                        <mxPoint x="1065.5" y="256.20000000000005" as="targetPoint"/>
                    </mxGeometry>
                </mxCell>
                <mxCell id="46" style="rounded=0;orthogonalLoop=1;jettySize=auto;html=1;endArrow=none;endFill=0;dashed=1;" edge="1" parent="1" source="47" target="40">
                    <mxGeometry relative="1" as="geometry"/>
                </mxCell>
                <mxCell id="47" value="&lt;font color=&quot;#ffffff&quot;&gt;&lt;b&gt;aws_route_table.private_b&lt;/b&gt;&lt;/font&gt;" style="outlineConnect=0;fontColor=#232F3E;gradientColor=none;strokeColor=#232F3E;fillColor=#ffffff;dashed=0;verticalLabelPosition=bottom;verticalAlign=top;align=center;html=1;fontSize=12;fontStyle=0;aspect=fixed;shape=mxgraph.aws4.resourceIcon;resIcon=mxgraph.aws4.route_table;" vertex="1" parent="1">
                    <mxGeometry x="1151" y="180" width="60" height="60" as="geometry"/>
                </mxCell>
                <mxCell id="48" value="aws_subnet.private_a - 10.1.10.0/24" style="text;html=1;align=center;verticalAlign=middle;resizable=0;points=[];autosize=1;fontStyle=1" vertex="1" parent="1">
                    <mxGeometry x="1266" y="180" width="220" height="20" as="geometry"/>
                </mxCell>
                <mxCell id="50" value="&lt;b style=&quot;font-size: 30px&quot;&gt;PUBLIC SUBNETS&lt;/b&gt;" style="text;html=1;align=center;verticalAlign=middle;resizable=0;points=[];autosize=1;fontSize=30;" vertex="1" parent="1">
                    <mxGeometry x="235" y="30" width="280" height="40" as="geometry"/>
                </mxCell>
                <mxCell id="51" value="&lt;b style=&quot;font-size: 30px&quot;&gt;PRIVATE SUBNETS&lt;/b&gt;" style="text;html=1;align=center;verticalAlign=middle;resizable=0;points=[];autosize=1;fontSize=30;" vertex="1" parent="1">
                    <mxGeometry x="1096" y="30" width="290" height="40" as="geometry"/>
                </mxCell>
                <mxCell id="52" value="" style="rounded=0;whiteSpace=wrap;html=1;" vertex="1" parent="1">
                    <mxGeometry x="931" y="585" width="620" height="320" as="geometry"/>
                </mxCell>
                <mxCell id="53" value="" style="rounded=0;whiteSpace=wrap;html=1;" vertex="1" parent="1">
                    <mxGeometry x="1271" y="635" width="260" height="205" as="geometry"/>
                </mxCell>
                <mxCell id="54" value="aws_vpc.main - 10.1.0.0/16" style="text;html=1;align=center;verticalAlign=middle;resizable=0;points=[];autosize=1;fontStyle=1" vertex="1" parent="1">
                    <mxGeometry x="931" y="585" width="170" height="20" as="geometry"/>
                </mxCell>
                <mxCell id="55" style="rounded=0;orthogonalLoop=1;jettySize=auto;html=1;endArrow=none;endFill=0;dashed=1;" edge="1" parent="1" source="56" target="53">
                    <mxGeometry relative="1" as="geometry"/>
                </mxCell>
                <mxCell id="59" style="rounded=0;orthogonalLoop=1;jettySize=auto;html=1;fontSize=30;endArrow=none;endFill=0;dashed=1;" edge="1" parent="1" source="56" target="21">
                    <mxGeometry relative="1" as="geometry"/>
                </mxCell>
                <mxCell id="56" value="&lt;font color=&quot;#ffffff&quot;&gt;&lt;b&gt;aws_route_table.private_b&lt;/b&gt;&lt;/font&gt;" style="outlineConnect=0;fontColor=#232F3E;gradientColor=none;strokeColor=#232F3E;fillColor=#ffffff;dashed=0;verticalLabelPosition=bottom;verticalAlign=top;align=center;html=1;fontSize=12;fontStyle=0;aspect=fixed;shape=mxgraph.aws4.resourceIcon;resIcon=mxgraph.aws4.route_table;" vertex="1" parent="1">
                    <mxGeometry x="1151" y="635" width="60" height="60" as="geometry"/>
                </mxCell>
                <mxCell id="57" value="aws_subnet.private_b - 10.1.11.0/24" style="text;html=1;align=center;verticalAlign=middle;resizable=0;points=[];autosize=1;fontStyle=1" vertex="1" parent="1">
                    <mxGeometry x="1266" y="635" width="220" height="20" as="geometry"/>
                </mxCell>
            </root>
        </mxGraphModel>
    </diagram>
</mxfile>